<svg width="15" height="15" viewBox="0 0 15 15" fill="none" xmlns="http://www.w3.org/2000/svg">
<g id="Frame">
<path id="Vector" d="M8.15005 7.5C8.15005 7.45 8.10005 7.35 8.05005 7.3L1.55005 1.1C1.50005 1.05 1.40005 1.05 1.35005 1.05C1.25005 1.05 1.20005 1.1 1.15005 1.2C1.10005 1.35 1.05005 1.5 1.05005 1.65V13.35C1.05005 13.5 1.10005 13.65 1.15005 13.8C1.20005 13.85 1.25005 13.95 1.35005 13.95H1.40005C1.45005 13.95 1.55005 13.95 1.55005 13.9L8.10005 7.7C8.15005 7.65 8.15005 7.55 8.15005 7.5ZM8.50005 7C8.55005 7.05 8.60005 7.05 8.65005 7.05C8.70005 7.05 8.75005 7.05 8.80005 7L10.6 5.3C10.65 5.25 10.7 5.15 10.7 5.1C10.7 5 10.6501 4.95 10.55 4.9L2.75005 0.65C2.60005 0.55 2.45005 0.55 2.30005 0.5C2.20005 0.5 2.10005 0.55 2.05005 0.65C2.00005 0.75 2.05005 0.85 2.10005 0.95L8.50005 7ZM8.85005 8C8.75005 7.9 8.60005 7.9 8.50005 8L2.10005 14.05C2.05005 14.15 2.00005 14.25 2.05005 14.35C2.10005 14.45 2.20005 14.5 2.30005 14.5C2.45005 14.5 2.60005 14.45 2.75005 14.35L10.5 10.05C10.55 10 10.6 9.95 10.65 9.85C10.65 9.75 10.6501 9.7 10.55 9.65L8.85005 8ZM13.4 6.45L11.5 5.4C11.4 5.35 11.3 5.35 11.2 5.45L9.20005 7.35C9.15005 7.4 9.10005 7.45 9.10005 7.55C9.10005 7.65 9.15005 7.7 9.20005 7.75L11.15 9.6C11.2 9.65 11.25 9.65 11.3 9.65C11.35 9.65 11.4 9.65 11.4 9.6L13.4 8.5C13.75 8.3 14 7.9 14 7.5C14 7.1 13.85 6.65 13.4 6.45Z" fill="white"/>
</g>
</svg>
